<?xml version="1.0" encoding="UTF-8" standalone="no"?>
<svg
   xmlns:dc="http://purl.org/dc/elements/1.1/"
   xmlns:cc="http://creativecommons.org/ns#"
   xmlns:rdf="http://www.w3.org/1999/02/22-rdf-syntax-ns#"
   xmlns:svg="http://www.w3.org/2000/svg"
   xmlns="http://www.w3.org/2000/svg"
   xmlns:xlink="http://www.w3.org/1999/xlink"
   version="1.1"
   width="372"
   height="442"
   id="svg2">
  <defs
     id="defs4" />
  <g
     transform="translate(66,70) scale(0.2,0.2)"
     id="g2996">
    <path
       d="m 560.5,966.21768 c -31.22834,-0.98382 -66.02123,-8.94739 -85.63798,-35.37341 -20.28586,-26.12995 -26.32139,-60.95127 -25.20489,-93.45893 -2.41932,-27.76035 9.7168,-54.75853 6.12842,-82.29602 -0.94583,-9.47946 -11.41671,-15.68411 -19.50362,-9.66448 -27.24784,15.26859 -45.25191,42.04421 -66.52404,64.15968 -11.49809,15.08437 -31.64431,26.84271 -31.16179,48.16839 -2.19666,18.41386 2.74047,36.70029 6.10435,54.70977 -5.82187,-12.82684 -14.3537,-25.54347 -16.95803,-39.46387 -5.6601,-44.5416 24.27947,-83.2351 51.34336,-115.30822 21.21163,-25.50938 43.25307,-50.98926 56.08523,-81.94243 37.71883,-78.51008 49.14335,-166.73864 53.2136,-252.88598 17.96597,151.11918 8.5034,303.8521 -7.06445,454.7105 -2.88735,11.21162 4.14985,21.62274 10.12004,30.36186 12.0386,14.34105 28.48397,23.82747 46.55117,28.43183 23.8437,7.08689 49.73748,6.64778 73.91026,1.36886 18.01954,-4.75136 35.43287,-12.76934 47.3973,-27.52433 13.93004,-13.98751 15.85703,-35.6656 12.05156,-54.27391 C 652.15744,712.13311 649.44478,566.1108 665.5,421.86218 c 0.51529,99.53842 21.30438,200.89236 72.7698,287 15.90326,25.57106 33.08133,51.33261 54.66024,72.33793 23.65905,13.72797 30.79988,43.83543 31.62246,69.46799 1.384,20.67502 -0.14269,43.11326 -15.75655,64.20015 -0.44312,-17.51641 11.50623,-49.77637 -1.19448,-72.25597 -19.83024,-41.65686 -60.15079,-66.98963 -91.34397,-99.2501 -16.51395,0.94021 -21.81118,19.4972 -19.69444,33.26833 -1.27878,30.67958 6.9321,60.66867 7.47988,91.30382 0.37265,23.46848 -4.4714,51.00286 -25.51515,64.74507 -32.12243,22.85604 -71.08344,36.04296 -110.7337,33.85683 l -3.63227,-0.12913 -3.66152,-0.18942 z M 402.60417,764.63298 c -3.95585,-1.60302 1.61932,7.19113 0,0 z"
       id="path3004"
       style="fill:#f3e2d6" />
    <path
       d="m 562,1249.3013 c -90.51566,-3.921 -186.10207,-13.5704 -264.17379,-63.3351 -37.89751,-19.2921 15.09407,-20.5995 30.42213,-17.8819 230.64004,-1.7707 310.08227,-2.5305 544.03699,0.9887 39.40375,-2.1373 -33.74213,30.7073 -48.9155,41.2094 -82.34778,33.3714 -173.4094,40.0961 -261.36983,39.0189 z m 59,-43.9657 c 46.46848,-1.1992 94.32867,0.8393 139.1383,-13.3002 17.15651,-18.4962 -22.77532,-21.4637 -35.43005,-18.6732 -111.22254,0 -222.44507,0 -333.6676,0 -13.77807,16.5029 13.74915,26.3337 28.42945,25.2024 66.56518,3.5994 128.33951,9.903 195.24169,6.8762 z M 1093,861.22978 C 919.07417,837.01503 943.15229,585.53103 1114.6629,601.1085 1286.1735,616.68597 1266.9258,885.44453 1093,861.22978 z M -60.225233,651.86725 C 35.40347,509.91399 259.66705,644.11556 163.01737,796.49528 66.367685,948.87501 -155.85394,793.8205 -60.225233,651.86725 z"
       id="path3002"
       style="fill:#fda9a9" />
    <path
       d="m 1065.745,1165.6689 c -52.1592,46.3284 -112.01703,89.8427 -181.245,104.5447 120.9346,-54.6709 179.8568,-126.5314 216.2058,-173.2126 37.0491,-47.921 82.1459,-158.075 95.982,-193.09801 -32.8307,16.77702 -98.5574,16.11105 -131.5801,13.48989 -82.55648,-7.68856 -273.70874,-57.96046 -197.84994,-106.52559 5.55017,-2.644 12.00024,30.47982 178.67634,79.69619 80.5171,16.9896 168.6546,11.79451 222.4111,-52.3656 -53.5902,237.08562 -212.8363,432.61792 -373.6671,607.66122 47.80989,-94.8992 134.6922,-184.9674 171.0669,-280.1902 z M -111.68953,834.25181 c 90.188958,113.98086 275.81626,56.54725 395.45261,-25.26158 60.55987,19.37086 -22.11854,72.24302 -135.40355,97.05675 -70.91743,20.52387 -152.1695132,7.17277 -189.018835,-3.45927 48.0196443,98.43039 89.614888,223.71149 182.325575,290.57489 42.5362,36.2956 92.07959,63.7856 144.99155,81.5633 -65.3149,-4.1706 -174.67449,-90.9666 -184.19118,-87.6421 41.50333,82.4971 123.55635,196.7237 155.42063,249.236 C 69.3924,1238.5405 -64.501896,1036.7418 -111.68953,834.25181 z M 1297.7831,592.75678 C 1218.5695,529.81844 1160.3992,512.2682 1095.5,559.16703 c -110.49404,35.20241 -251.21973,33.4704 -344.85775,-40.32294 -41.02961,-36.43085 18.32789,-94.50067 53.76612,-109.06719 81.72333,-38.98276 182.27538,-57.46097 268.95893,-23.48765 54.1072,25.55322 75.0123,107.51991 139.1327,112.51579 27.5534,-8.87825 38.6574,-22.39197 59.4191,-62.49979 -5.9592,18.23202 -24.9077,60.97638 -43.0456,73.02128 13.7104,8.48541 20.2137,15.15724 55.7609,41.21551 -41.6601,-16.29966 -50.8755,-24.48983 -79.736,-27.22761 6.0303,2.84681 67.787,31.90754 92.8847,69.44235 z m -294.8815,-48.38875 c 57.0752,0.34098 121.4509,-20.73777 129.169,-43.93735 -75.2115,-165.32247 -246.08268,-117.6548 -338.04215,-57.48426 -45.14726,22.67307 -27.05257,62.62205 7.88034,78.36015 61.28337,30.66722 134.2985,27.57245 200.99281,23.06146 z M -39.575251,512.95261 c -24.355301,1.15942 -32.519824,-2.10311 -86.159869,30.39398 33.133912,-26.42135 36.232462,-31.76767 54.041623,-40.55058 -18.346793,-20.27358 -27.672357,-36.43173 -42.189253,-71.7755 34.723328,56.35207 105.2377471,59.85997 127.17684,26.84176 38.695043,-48.24491 69.860025,-93.90917 149.64026,-94.8564 88.64455,-2.58156 201.66623,13.72655 255.81647,90.66426 32.50281,60.48151 -60.49272,92.56896 -102.55578,104.77345 C 217.56622,582.84121 109.35651,577.498 18.5,528.99239 c -57.141855,-8.15199 -84.323765,4.38904 -159.22074,58.59589 50.822193,-55.46384 95.423635,-62.71698 101.145489,-74.63567 z M 248.5,539.34157 c 49.02437,-3.7476 134.43631,3.95528 146.0236,-58.97939 -2.72378,-63.28128 -83.19302,-74.60416 -131.7163,-91.9127 -82.70943,-22.93681 -201.109036,18.46846 -234.353356,105.94173 12.302617,21.51277 58.756944,31.86616 84.899266,38.06244 44.22534,6.94673 90.38344,10.28317 135.14679,6.88792 z M 443.44856,437.11218 C 273.22138,238.6176 143.65585,151.97616 -81.048495,214.5069 0.62915028,120.12067 147.13832,156.86999 233.97138,191.21824 c 50.36964,20.07547 99.86152,50.46624 143.77862,76.26894 10.93577,-4.2805 62.96615,102.19915 37.29036,57.375 16.91786,40.04177 28.32497,82.0958 37.54285,124.5 l -9.13469,-12.25 z m 247.44107,13.62632 c 12.35202,-56.95132 21.61345,-110.45181 61.13571,-172.37379 33.50893,-22.77535 75.9691,-49.02121 111.58676,-65.32112 136.06604,-66.39053 220.6397,-75.40778 305.2329,-41.93063 16.0579,8.00046 45.9424,23.14257 46.3735,40.33729 C 1023.0148,153.10703 843.14323,236.40726 690.88963,450.7385 z M -80,199.88984 C -50.123931,105.86202 36.130636,22.036384 140.59664,33.577749 228.49195,36.713181 311.10983,79.809178 380.56842,130.87883 293.89354,98.343529 193.75777,82.856518 103.50138,87.36441 -5.0790702,86.139176 -60.820776,160.84849 -80,199.88984 z m 1302.6882,-1.66729 c -30.6229,-39.73177 -33.189,-47.26447 -66.4429,-73.69816 -124.1294,-83.21315 -284.19459,-16.9054 -394.47017,5.1969 132.15961,-88.139307 303.53867,-162.55325 423.14317,-9.24679 17.3376,19.36398 34.2988,66.51037 37.7699,77.74805 z"
       id="path3000"
       style="fill:#c6b6b6" />
    <path
       d="M 529,1788.7375 C 392.84569,1757.2637 297.62628,1648.6067 195.91518,1561.6831 81.375209,1439.424 -58.041298,1328.8848 -110.47516,1162.909 c -78.63815,-227.78049 -92.60071,-471.22292 -93.48915,-710.54682 8.01873,-120.45887 14.71662,-244.42739 37.10378,-361.5 25.8283,-88.2170717 34.83825,-193.9097 106.83056,-258.55151 79.080091,-39.9486 170.01195,-45.63018 254.62426,-71.16629 193.81243,-41.21314 393.66171,-44.68461 590.35783,-27.42593 118.8885,18.88717 242.05098,24.03367 355.89638,64.98626 133.2783,63.13545 181.6502,217.185475 213.2483,349.97684 15.0545,111.79591 24.4175,226.39431 26.2629,339.90485 -1.5395,258.9007 -40.4102,519.7547 -135.4254,761.5674 -48.1774,90.8226 -119.803,167.8878 -194.3991,237.7084 -91.06718,76.1431 -174.67786,154.8507 -268.0543,224.3322 -73.33137,54.2731 -162.54374,81.1613 -253.4809,76.5431 z m 60,-5.8888 c 157.20548,-13.188 266.17628,-137.5224 381.2449,-231.2105 96.0648,-78.1838 186.2051,-166.5241 252.3708,-271.8216 39.5899,-66.1815 55.688,-144.0417 80.1477,-217.0936 57.4388,-223.55832 83.8071,-456.37986 69.4968,-687.01246 -9.541,-108.0395 -9.9164,-216.86186 -47.6223,-319.787206 -36.1831,-125.572167 -119.6684,-259.279304 -261.9108,-276.365884 -168.73755,-30.44832 -339.31161,-55.50855 -511.25427,-51.02939 -200.43877,-2.22761 -399.64294,39.37594 -590.176562,98.12423 -73.720418,33.82941 -84.611808,129.81645 -107.481788,198.463169 -38.09627,137.371561 -43.44242,281.392401 -53.2532,422.774761 -0.40579,246.35455 14.12148,498.9116 100.515752,731.79598 59.282847,165.2925 202.127748,276.1979 319.969138,398.5214 76.04415,66.6698 151.44321,143.4463 246.92307,186.4175 38.36595,18.2741 79.14747,24.3802 121.03076,18.2236 z m -15.94892,0.5946 c -49.12429,-41.4173 -44.19363,-127.9139 -60.35157,-186.7355 -11.52982,-66.5651 -0.97273,-136.2779 17.96892,-199.4123 -10.55538,-40.796 -20.59056,-34.6645 -49.20398,-75.3781 49.39288,0.3843 136.08544,-2.3171 184.53555,-0.99 -24.93601,29.0273 -60.33357,63.6532 -42.15403,104.7383 7.9447,33.2545 25.69415,70.9997 10.66491,177.5644 -22.52578,100.7092 -19.34055,146.4373 -61.4598,180.2132 z M 464,1200.3786 c -54.45948,-9.513 -93.87257,-3.5145 -70.17046,-25.0164 110.85376,1.4105 255.96532,-2.8076 365.82666,2.0965 14.03821,28.4824 -62.90712,19.2309 -85.1191,24.9094 -70.08974,-1.263 -140.69798,4.2397 -210.5371,-1.9895 z M 196.77592,1164.8544 C 76.898745,1156.5893 45.773891,998.48608 -8.0592107,914.84896 c 28.6252797,6.17338 56.5359757,4.07018 74.5153147,4.51152 30.942464,62.61202 44.316516,84.24012 81.426106,138.28742 4.69067,22.5441 52.51411,26.4634 99.84924,25.8122 39.49403,-0.5434 97.03161,10.1105 152.1239,-25.1989 33.69186,-38.5493 47.7644,-49.7849 72.85825,-81.41503 42.93593,4.34578 164.64831,12.1067 204.6727,-2.68639 36.10221,43.93982 70.56243,105.92682 135.80972,102.93492 38.61837,2.1678 53.59935,3.7398 88.26232,6.1362 34.66297,2.3965 64.125,4.0623 88.16034,-35.572 43.47092,-50.66949 59.46872,-73.93469 101.49312,-125.79672 21.3036,-0.20138 42.1714,-1.09641 68.1421,-3.47063 -47.8519,65.09175 -121.8301,230.17605 -199.90748,247.37515 -87.70325,-2.462 -182.54206,1.1261 -277.21192,-1.7244 -37.80433,-32.6917 -80.29943,-121.8725 -113.80698,-125.566 -19.41683,6.5696 -64.11791,100.9163 -107.76922,126.8832 -116.0915,1.3562 -158.1361,2.9907 -263.78238,-0.5051 z M 689.27926,961.61488 c -11.46446,-28.3387 45.33221,-46.82888 65.83794,-35.4476 11.75228,23.5807 -50.2627,36.74747 -65.83794,35.4476 z m -235.44816,-8.307 c -35.44348,15.75393 -100.03059,-45.07527 -39.39771,-37.54118 17.42557,5.54127 43.3941,16.57275 39.39771,37.54118 z M 768.7646,482.88324 c -3.24306,-25.2701 108.66831,-76.01018 177.88199,-70.21414 69.21371,5.79604 156.72971,54.12819 156.69591,69.00252 7.829,27.23312 -105.59191,48.26796 -177.20686,47.12856 C 854.52069,527.66077 767.71171,512.34711 768.7646,482.88324 z M 43.683716,478.82936 c -4.38641,-27.85967 111.859734,-73.29607 176.552304,-73.74924 64.69258,-0.45318 172.71118,45.41466 170.9533,70.73199 7.22843,25.89542 -107.52446,46.03211 -185.99652,43.71123 C 131.75055,517.35122 38.876151,504.46385 43.683716,478.82936 z M 444,284.28183 C 407.71768,311.26705 336.51387,220.52677 187.84906,172.34246 69.395783,132.37257 -26.99355,146.72605 -91.78779,221.49881 -51.723922,126.83314 43.282489,74.179731 162.61395,93.90006 292.50496,112.7663 491.47776,240.49773 444,284.28183 z m 258.7175,8.0523 c -50.33516,-39.74506 63.91871,-98.85341 87.86781,-125.22502 101.09354,-67.2487 243.65339,-112.379664 357.77279,-45.27581 59.4468,40.30982 80.7151,96.81095 80.7151,96.81095 0,0 -50.8295,-75.2939 -176.8609,-66.88979 -176.89221,18.71532 -298.70988,142.77468 -349.4948,140.57967 z"
       id="path2998"
       style="fill:#010101" />
  </g>
</svg>
